<svg xmlns="http://www.w3.org/2000/svg" xmlns:xlink="http://www.w3.org/1999/xlink" width="500" zoomAndPan="magnify" viewBox="0 0 375 374.999991" height="500" preserveAspectRatio="xMidYMid meet" version="1.2"><defs><clipPath id="f90e57c67b"><path d="M 191 30 L 360.746094 30 L 360.746094 248 L 191 248 Z M 191 30 "/></clipPath><clipPath id="8d67bafe49"><path d="M 14.246094 131 L 175 131 L 175 345 L 14.246094 345 Z M 14.246094 131 "/></clipPath></defs><g id="578ddbb939"><path style=" stroke:none;fill-rule:nonzero;fill:#004aad;fill-opacity:1;" d="M 300.152344 77.039062 C 271.628906 48.1875 231.992188 30.289062 188.199219 30.289062 C 144.40625 30.289062 104.792969 48.1875 76.25 77.039062 Z M 300.152344 77.039062 "/><path style=" stroke:none;fill-rule:nonzero;fill:#004aad;fill-opacity:1;" d="M 79.511719 301.304688 C 107.773438 328.285156 146.042969 344.875 188.199219 344.875 C 230.371094 344.875 268.625 328.285156 296.898438 301.304688 Z M 79.511719 301.304688 "/><g clip-rule="nonzero" clip-path="url(#f90e57c67b)"><path style=" stroke:none;fill-rule:nonzero;fill:#004aad;fill-opacity:1;" d="M 360.746094 30.070312 L 349.226562 30.070312 C 349.226562 131.324219 297.515625 198.246094 191.230469 234.609375 L 195.578125 247.042969 L 334.140625 247.042969 C 341.570312 228.753906 345.695312 208.761719 345.695312 187.792969 C 345.695312 169.589844 342.566406 152.121094 336.890625 135.859375 C 352.722656 105.492188 360.746094 70.074219 360.746094 30.070312 "/></g><path style=" stroke:none;fill-rule:nonzero;fill:#004aad;fill-opacity:1;" d="M 178.050781 156.074219 C 134.679688 172.019531 101.136719 194.429688 78.265625 222.808594 C 52.253906 255.074219 39.066406 296.160156 39.066406 344.925781 L 48.269531 344.925781 C 48.269531 256.683594 91.664062 197.695312 180.804688 164.871094 Z M 178.050781 156.074219 "/><g clip-rule="nonzero" clip-path="url(#8d67bafe49)"><path style=" stroke:none;fill-rule:nonzero;fill:#004aad;fill-opacity:1;" d="M 170.425781 131.703125 L 41.035156 131.703125 C 34.382812 149.125 30.707031 168.027344 30.707031 187.792969 C 30.707031 205.246094 33.597656 222.015625 38.84375 237.699219 C 22.515625 268.386719 14.246094 304.292969 14.246094 344.925781 L 25.761719 344.925781 C 25.761719 246.761719 74.386719 180.847656 174.207031 143.792969 Z M 170.425781 131.703125 "/></g><path style=" stroke:none;fill-rule:nonzero;fill:#004aad;fill-opacity:1;" d="M 326.714844 30.070312 C 326.714844 121.632812 280.015625 181.714844 183.957031 213.726562 L 186.984375 222.421875 C 235.199219 206.335938 272.125 182.710938 296.726562 152.191406 C 322.746094 119.914062 335.929688 78.828125 335.929688 30.070312 Z M 326.714844 30.070312 "/></g></svg>