<svg xmlns="http://www.w3.org/2000/svg" xmlns:xlink="http://www.w3.org/1999/xlink" width="656" zoomAndPan="magnify" viewBox="0 0 492 193.499995" height="258" preserveAspectRatio="xMidYMid meet" version="1.2"><defs><clipPath id="a52b04269c"><path d="M 108.382812 0.554688 L 209.964844 0.554688 L 209.964844 131 L 108.382812 131 Z M 108.382812 0.554688 "/></clipPath><clipPath id="01ae32013f"><path d="M 2.601562 61 L 98.804688 61 L 98.804688 189.066406 L 2.601562 189.066406 Z M 2.601562 61 "/></clipPath></defs><g id="4d320a6832"><path style=" stroke:none;fill-rule:nonzero;fill:#0055a5;fill-opacity:1;" d="M 173.703125 28.703125 C 156.632812 11.4375 132.914062 0.726562 106.707031 0.726562 C 80.496094 0.726562 56.789062 11.4375 39.707031 28.703125 Z M 173.703125 28.703125 "/><path style=" stroke:none;fill-rule:nonzero;fill:#0055a5;fill-opacity:1;" d="M 41.660156 162.917969 C 58.574219 179.0625 81.476562 188.992188 106.707031 188.992188 C 131.941406 188.992188 154.835938 179.0625 171.757812 162.917969 Z M 41.660156 162.917969 "/><g clip-rule="nonzero" clip-path="url(#a52b04269c)"><path style=" stroke:none;fill-rule:nonzero;fill:#0055a5;fill-opacity:1;" d="M 209.964844 0.59375 L 203.074219 0.59375 C 203.074219 61.191406 172.125 101.242188 108.519531 123.003906 L 111.121094 130.445312 L 194.042969 130.445312 C 198.492188 119.5 200.960938 107.535156 200.960938 94.984375 C 200.960938 84.089844 199.085938 73.636719 195.691406 63.90625 C 205.164062 45.730469 209.964844 24.535156 209.964844 0.59375 "/></g><path style=" stroke:none;fill-rule:nonzero;fill:#0055a5;fill-opacity:1;" d="M 100.632812 76.003906 C 74.675781 85.546875 54.601562 98.957031 40.914062 115.941406 C 25.347656 135.25 17.457031 159.839844 17.457031 189.023438 L 22.964844 189.023438 C 22.964844 136.214844 48.933594 100.910156 102.28125 81.265625 Z M 100.632812 76.003906 "/><g clip-rule="nonzero" clip-path="url(#01ae32013f)"><path style=" stroke:none;fill-rule:nonzero;fill:#0055a5;fill-opacity:1;" d="M 96.070312 61.417969 L 18.632812 61.417969 C 14.652344 71.84375 12.453125 83.15625 12.453125 94.984375 C 12.453125 105.429688 14.183594 115.464844 17.324219 124.851562 C 7.550781 143.214844 2.601562 164.703125 2.601562 189.023438 L 9.492188 189.023438 C 9.492188 130.273438 38.59375 90.828125 98.332031 68.652344 Z M 96.070312 61.417969 "/></g><path style=" stroke:none;fill-rule:nonzero;fill:#0055a5;fill-opacity:1;" d="M 189.601562 0.59375 C 189.601562 55.390625 161.652344 91.347656 104.167969 110.503906 L 105.976562 115.707031 C 134.832031 106.082031 156.929688 91.945312 171.652344 73.679688 C 187.226562 54.363281 195.113281 29.773438 195.113281 0.59375 Z M 189.601562 0.59375 "/><g style="fill:#0055a5;fill-opacity:1;"><g transform="translate(224.143913, 74.185366)"><path style="stroke:none" d="M 39.390625 -8 L 39.390625 0 L 2.296875 0 L 2.296875 -6.359375 L 25.578125 -34.421875 L 2.78125 -34.421875 L 2.78125 -42.421875 L 38.484375 -42.421875 L 38.484375 -36.046875 L 15.265625 -8 Z M 39.390625 -8 "/></g></g><g style="fill:#0055a5;fill-opacity:1;"><g transform="translate(264.368606, 74.185366)"><path style="stroke:none" d="M 36.296875 -16.171875 C 36.296875 -16.054688 36.234375 -15.210938 36.109375 -13.640625 L 11.453125 -13.640625 C 11.898438 -11.617188 12.953125 -10.019531 14.609375 -8.84375 C 16.265625 -7.675781 18.320312 -7.09375 20.78125 -7.09375 C 22.476562 -7.09375 23.984375 -7.34375 25.296875 -7.84375 C 26.609375 -8.351562 27.832031 -9.148438 28.96875 -10.234375 L 34 -4.78125 C 30.925781 -1.269531 26.441406 0.484375 20.546875 0.484375 C 16.867188 0.484375 13.613281 -0.226562 10.78125 -1.65625 C 7.957031 -3.09375 5.773438 -5.082031 4.234375 -7.625 C 2.703125 -10.175781 1.9375 -13.066406 1.9375 -16.296875 C 1.9375 -19.492188 2.691406 -22.375 4.203125 -24.9375 C 5.722656 -27.5 7.804688 -29.492188 10.453125 -30.921875 C 13.097656 -32.359375 16.054688 -33.078125 19.328125 -33.078125 C 22.515625 -33.078125 25.398438 -32.390625 27.984375 -31.015625 C 30.578125 -29.648438 32.609375 -27.679688 34.078125 -25.109375 C 35.554688 -22.546875 36.296875 -19.566406 36.296875 -16.171875 Z M 19.390625 -25.9375 C 17.242188 -25.9375 15.441406 -25.328125 13.984375 -24.109375 C 12.535156 -22.898438 11.648438 -21.242188 11.328125 -19.140625 L 27.390625 -19.140625 C 27.066406 -21.203125 26.175781 -22.847656 24.71875 -24.078125 C 23.269531 -25.316406 21.492188 -25.9375 19.390625 -25.9375 Z M 19.390625 -25.9375 "/></g></g><g style="fill:#0055a5;fill-opacity:1;"><g transform="translate(302.594258, 74.185366)"><path style="stroke:none" d="M 13.390625 -28.296875 C 14.523438 -29.867188 16.050781 -31.054688 17.96875 -31.859375 C 19.882812 -32.671875 22.09375 -33.078125 24.59375 -33.078125 L 24.59375 -24.359375 C 23.550781 -24.441406 22.847656 -24.484375 22.484375 -24.484375 C 19.773438 -24.484375 17.648438 -23.722656 16.109375 -22.203125 C 14.578125 -20.691406 13.8125 -18.421875 13.8125 -15.390625 L 13.8125 0 L 4.359375 0 L 4.359375 -32.59375 L 13.390625 -32.59375 Z M 13.390625 -28.296875 "/></g></g><g style="fill:#0055a5;fill-opacity:1;"><g transform="translate(328.461647, 74.185366)"><path style="stroke:none" d="M 46.109375 -33.078125 C 50.191406 -33.078125 53.429688 -31.875 55.828125 -29.46875 C 58.234375 -27.070312 59.4375 -23.46875 59.4375 -18.65625 L 59.4375 0 L 49.984375 0 L 49.984375 -17.203125 C 49.984375 -19.796875 49.445312 -21.726562 48.375 -23 C 47.3125 -24.269531 45.789062 -24.90625 43.8125 -24.90625 C 41.59375 -24.90625 39.832031 -24.1875 38.53125 -22.75 C 37.238281 -21.320312 36.59375 -19.191406 36.59375 -16.359375 L 36.59375 0 L 27.140625 0 L 27.140625 -17.203125 C 27.140625 -22.335938 25.082031 -24.90625 20.96875 -24.90625 C 18.78125 -24.90625 17.039062 -24.1875 15.75 -22.75 C 14.457031 -21.320312 13.8125 -19.191406 13.8125 -16.359375 L 13.8125 0 L 4.359375 0 L 4.359375 -32.59375 L 13.390625 -32.59375 L 13.390625 -28.84375 C 14.597656 -30.21875 16.082031 -31.265625 17.84375 -31.984375 C 19.601562 -32.710938 21.53125 -33.078125 23.625 -33.078125 C 25.925781 -33.078125 28.003906 -32.625 29.859375 -31.71875 C 31.722656 -30.8125 33.222656 -29.488281 34.359375 -27.75 C 35.691406 -29.445312 37.375 -30.757812 39.40625 -31.6875 C 41.445312 -32.613281 43.679688 -33.078125 46.109375 -33.078125 Z M 46.109375 -33.078125 "/></g></g><g style="fill:#0055a5;fill-opacity:1;"><g transform="translate(392.373048, 74.185366)"><path style="stroke:none" d="M 36.296875 -16.171875 C 36.296875 -16.054688 36.234375 -15.210938 36.109375 -13.640625 L 11.453125 -13.640625 C 11.898438 -11.617188 12.953125 -10.019531 14.609375 -8.84375 C 16.265625 -7.675781 18.320312 -7.09375 20.78125 -7.09375 C 22.476562 -7.09375 23.984375 -7.34375 25.296875 -7.84375 C 26.609375 -8.351562 27.832031 -9.148438 28.96875 -10.234375 L 34 -4.78125 C 30.925781 -1.269531 26.441406 0.484375 20.546875 0.484375 C 16.867188 0.484375 13.613281 -0.226562 10.78125 -1.65625 C 7.957031 -3.09375 5.773438 -5.082031 4.234375 -7.625 C 2.703125 -10.175781 1.9375 -13.066406 1.9375 -16.296875 C 1.9375 -19.492188 2.691406 -22.375 4.203125 -24.9375 C 5.722656 -27.5 7.804688 -29.492188 10.453125 -30.921875 C 13.097656 -32.359375 16.054688 -33.078125 19.328125 -33.078125 C 22.515625 -33.078125 25.398438 -32.390625 27.984375 -31.015625 C 30.578125 -29.648438 32.609375 -27.679688 34.078125 -25.109375 C 35.554688 -22.546875 36.296875 -19.566406 36.296875 -16.171875 Z M 19.390625 -25.9375 C 17.242188 -25.9375 15.441406 -25.328125 13.984375 -24.109375 C 12.535156 -22.898438 11.648438 -21.242188 11.328125 -19.140625 L 27.390625 -19.140625 C 27.066406 -21.203125 26.175781 -22.847656 24.71875 -24.078125 C 23.269531 -25.316406 21.492188 -25.9375 19.390625 -25.9375 Z M 19.390625 -25.9375 "/></g></g><g style="fill:#0055a5;fill-opacity:1;"><g transform="translate(430.5987, 74.185366)"><path style="stroke:none" d="M 4.359375 -44.953125 L 13.8125 -44.953125 L 13.8125 0 L 4.359375 0 Z M 4.359375 -44.953125 "/></g></g><g style="fill:#0055a5;fill-opacity:1;"><g transform="translate(448.833138, 74.185366)"><path style="stroke:none" d="M 19.875 0.484375 C 16.4375 0.484375 13.351562 -0.226562 10.625 -1.65625 C 7.90625 -3.09375 5.773438 -5.082031 4.234375 -7.625 C 2.703125 -10.175781 1.9375 -13.066406 1.9375 -16.296875 C 1.9375 -19.523438 2.703125 -22.410156 4.234375 -24.953125 C 5.773438 -27.503906 7.90625 -29.492188 10.625 -30.921875 C 13.351562 -32.359375 16.4375 -33.078125 19.875 -33.078125 C 23.3125 -33.078125 26.378906 -32.359375 29.078125 -30.921875 C 31.785156 -29.492188 33.90625 -27.503906 35.4375 -24.953125 C 36.976562 -22.410156 37.75 -19.523438 37.75 -16.296875 C 37.75 -13.066406 36.976562 -10.175781 35.4375 -7.625 C 33.90625 -5.082031 31.785156 -3.09375 29.078125 -1.65625 C 26.378906 -0.226562 23.3125 0.484375 19.875 0.484375 Z M 19.875 -7.265625 C 22.300781 -7.265625 24.289062 -8.082031 25.84375 -9.71875 C 27.394531 -11.351562 28.171875 -13.546875 28.171875 -16.296875 C 28.171875 -19.046875 27.394531 -21.238281 25.84375 -22.875 C 24.289062 -24.507812 22.300781 -25.328125 19.875 -25.328125 C 17.445312 -25.328125 15.445312 -24.507812 13.875 -22.875 C 12.300781 -21.238281 11.515625 -19.046875 11.515625 -16.296875 C 11.515625 -13.546875 12.300781 -11.351562 13.875 -9.71875 C 15.445312 -8.082031 17.445312 -7.265625 19.875 -7.265625 Z M 19.875 -7.265625 "/></g></g><g style="fill:#0055a5;fill-opacity:1;"><g transform="translate(224.143913, 158.905227)"><path style="stroke:none" d="M 45.8125 -42.421875 L 27.453125 0 L 17.75 0 L -0.546875 -42.421875 L 10.0625 -42.421875 L 22.96875 -12.125 L 36.046875 -42.421875 Z M 45.8125 -42.421875 "/></g></g><g style="fill:#0055a5;fill-opacity:1;"><g transform="translate(269.033243, 158.905227)"><path style="stroke:none" d="M 4.359375 -32.59375 L 13.8125 -32.59375 L 13.8125 0 L 4.359375 0 Z M 9.09375 -37.140625 C 7.351562 -37.140625 5.9375 -37.644531 4.84375 -38.65625 C 3.75 -39.664062 3.203125 -40.921875 3.203125 -42.421875 C 3.203125 -43.910156 3.75 -45.160156 4.84375 -46.171875 C 5.9375 -47.179688 7.351562 -47.6875 9.09375 -47.6875 C 10.820312 -47.6875 12.234375 -47.203125 13.328125 -46.234375 C 14.421875 -45.265625 14.96875 -44.050781 14.96875 -42.59375 C 14.96875 -41.019531 14.421875 -39.71875 13.328125 -38.6875 C 12.234375 -37.65625 10.820312 -37.140625 9.09375 -37.140625 Z M 9.09375 -37.140625 "/></g></g><g style="fill:#0055a5;fill-opacity:1;"><g transform="translate(287.267669, 158.905227)"><path style="stroke:none" d="M 36.296875 -16.171875 C 36.296875 -16.054688 36.234375 -15.210938 36.109375 -13.640625 L 11.453125 -13.640625 C 11.898438 -11.617188 12.953125 -10.019531 14.609375 -8.84375 C 16.265625 -7.675781 18.320312 -7.09375 20.78125 -7.09375 C 22.476562 -7.09375 23.984375 -7.34375 25.296875 -7.84375 C 26.609375 -8.351562 27.832031 -9.148438 28.96875 -10.234375 L 34 -4.78125 C 30.925781 -1.269531 26.441406 0.484375 20.546875 0.484375 C 16.867188 0.484375 13.613281 -0.226562 10.78125 -1.65625 C 7.957031 -3.09375 5.773438 -5.082031 4.234375 -7.625 C 2.703125 -10.175781 1.9375 -13.066406 1.9375 -16.296875 C 1.9375 -19.492188 2.691406 -22.375 4.203125 -24.9375 C 5.722656 -27.5 7.804688 -29.492188 10.453125 -30.921875 C 13.097656 -32.359375 16.054688 -33.078125 19.328125 -33.078125 C 22.515625 -33.078125 25.398438 -32.390625 27.984375 -31.015625 C 30.578125 -29.648438 32.609375 -27.679688 34.078125 -25.109375 C 35.554688 -22.546875 36.296875 -19.566406 36.296875 -16.171875 Z M 19.390625 -25.9375 C 17.242188 -25.9375 15.441406 -25.328125 13.984375 -24.109375 C 12.535156 -22.898438 11.648438 -21.242188 11.328125 -19.140625 L 27.390625 -19.140625 C 27.066406 -21.203125 26.175781 -22.847656 24.71875 -24.078125 C 23.269531 -25.316406 21.492188 -25.9375 19.390625 -25.9375 Z M 19.390625 -25.9375 "/></g></g><g style="fill:#0055a5;fill-opacity:1;"><g transform="translate(324.887422, 158.905227)"><path style="stroke:none" d="M 56.71875 -32.59375 L 44.90625 0 L 35.8125 0 L 28.484375 -20.234375 L 20.90625 0 L 11.8125 0 L 0.0625 -32.59375 L 8.96875 -32.59375 L 16.65625 -10.546875 L 24.65625 -32.59375 L 32.65625 -32.59375 L 40.421875 -10.546875 L 48.359375 -32.59375 Z M 56.71875 -32.59375 "/></g></g><g style="fill:#0055a5;fill-opacity:1;"><g transform="translate(380.74153, 158.905227)"><path style="stroke:none" d="M 36.296875 -16.171875 C 36.296875 -16.054688 36.234375 -15.210938 36.109375 -13.640625 L 11.453125 -13.640625 C 11.898438 -11.617188 12.953125 -10.019531 14.609375 -8.84375 C 16.265625 -7.675781 18.320312 -7.09375 20.78125 -7.09375 C 22.476562 -7.09375 23.984375 -7.34375 25.296875 -7.84375 C 26.609375 -8.351562 27.832031 -9.148438 28.96875 -10.234375 L 34 -4.78125 C 30.925781 -1.269531 26.441406 0.484375 20.546875 0.484375 C 16.867188 0.484375 13.613281 -0.226562 10.78125 -1.65625 C 7.957031 -3.09375 5.773438 -5.082031 4.234375 -7.625 C 2.703125 -10.175781 1.9375 -13.066406 1.9375 -16.296875 C 1.9375 -19.492188 2.691406 -22.375 4.203125 -24.9375 C 5.722656 -27.5 7.804688 -29.492188 10.453125 -30.921875 C 13.097656 -32.359375 16.054688 -33.078125 19.328125 -33.078125 C 22.515625 -33.078125 25.398438 -32.390625 27.984375 -31.015625 C 30.578125 -29.648438 32.609375 -27.679688 34.078125 -25.109375 C 35.554688 -22.546875 36.296875 -19.566406 36.296875 -16.171875 Z M 19.390625 -25.9375 C 17.242188 -25.9375 15.441406 -25.328125 13.984375 -24.109375 C 12.535156 -22.898438 11.648438 -21.242188 11.328125 -19.140625 L 27.390625 -19.140625 C 27.066406 -21.203125 26.175781 -22.847656 24.71875 -24.078125 C 23.269531 -25.316406 21.492188 -25.9375 19.390625 -25.9375 Z M 19.390625 -25.9375 "/></g></g><g style="fill:#0055a5;fill-opacity:1;"><g transform="translate(418.967182, 158.905227)"><path style="stroke:none" d="M 13.390625 -28.296875 C 14.523438 -29.867188 16.050781 -31.054688 17.96875 -31.859375 C 19.882812 -32.671875 22.09375 -33.078125 24.59375 -33.078125 L 24.59375 -24.359375 C 23.550781 -24.441406 22.847656 -24.484375 22.484375 -24.484375 C 19.773438 -24.484375 17.648438 -23.722656 16.109375 -22.203125 C 14.578125 -20.691406 13.8125 -18.421875 13.8125 -15.390625 L 13.8125 0 L 4.359375 0 L 4.359375 -32.59375 L 13.390625 -32.59375 Z M 13.390625 -28.296875 "/></g></g></g></svg>